# xmcd
#
# Track frame offsets: 
#        150
#        10320
#        21210
#        34311
#        46086
#        62867
#        74789
#        84351
#        105001
#        115861
#        128875
#        139006
#        147792
#        157320
#        169494
#        182949
#        197782
#        210632
#        222219
#
# Disc length: 3137 seconds
#
# Revision: 0
# Processed by: cddbd v1.5.2PL0 Copyright (c) Steve Scherf et al.
# Submitted via: ExactAudioCopy v0.95b4
#
DISCID=1c0c3f13
DTITLE=Va  - The British Beat Best Of The '60s - Disc 2
DYEAR=1900
DGENRE=
TTITLE0=The Kinks - You Really Got Me
TTITLE1=The Zombies - She's Not There
TTITLE2=The Spencer Davis Group - Gimme Some Lovin'
TTITLE3=Manfred Mann - Dow Wah Diddy Diddy
TTITLE4=Donovan - Mellow Yellow
TTITLE5=The Foundations - Baby, Now That I Found You
TTITLE6=The Zombies - Tell Her No
TTITLE7=Donovan - Sunshine Superman
TTITLE8=The Kinks - All Day And All Of The Night
TTITLE9=The Easybeats - Friday On My Mind
TTITLE10=The Searchers - Needles And Pins
TTITLE11=Gerry and The Pacemakers - How Do You Do It?
TTITLE12=The Searchers - Love Potion Number Nine
TTITLE13=Peter and Gordon - A Wolrd Without Love
TTITLE14=The Hollies - Carrie-Anne
TTITLE15=The Tornados - Telstar
TTITLE16=Dusty Springfield - You Don't Have To Say You Love Me
TTITLE17=Jonathan King - Everyone's Gone To The Moon
TTITLE18=Donovan - Catch The Wind
EXTD=
EXTT0=
EXTT1=
EXTT2=
EXTT3=
EXTT4=
EXTT5=
EXTT6=
EXTT7=
EXTT8=
EXTT9=
EXTT10=
EXTT11=
EXTT12=
EXTT13=
EXTT14=
EXTT15=
EXTT16=
EXTT17=
EXTT18=
PLAYORDER=
